# xmcd
#
# Track frame offsets:
#	150
#	18431
#	31153
#	46741
#	70979
#	93632
#
# Disc length: 1622 seconds
#
# Revision: 1
# Processed by: cddbd v1.4PL0 Copyright (c) Steve Scherf et al.
# Submitted via: EasyCDDAExtractor 5.0.6
#
DISCID=44065406
DTITLE=Roosevelt Frankie Band - Recovered
DYEAR=1900
DGENRE=Blues
TTITLE0=Pride and joy
TTITLE1=Happy home
TTITLE2=Don't you know
TTITLE3=Texas flood
TTITLE4=Born on the Bayon
TTITLE5=Voodoo Chile (slight return)
EXTD=Ter nagedachtenis aan Dirk Boutkan\n-- Bert--
EXTT0=
EXTT1=
EXTT2=
EXTT3=
EXTT4=
EXTT5=
PLAYORDER=
